HIERARCHY
ROOT Hips
{
	OFFSET -22.846729 91.940529 -261.900696
	CHANNELS 6 Xposition Yposition Zposition Zrotation Yrotation Xrotation 
	JOINT LeftUpLeg
	{
		OFFSET 0.103462 1.857826 10.548503
		CHANNELS 3 Zrotation Yrotation Xrotation
		JOINT LeftLeg
		{
			OFFSET 43.500000 -0.000031 0.000000
			CHANNELS 3 Zrotation Yrotation Xrotation
			JOINT LeftFoot
			{
				OFFSET 42.372200 0.000008 -0.000003
				CHANNELS 3 Zrotation Yrotation Xrotation
				JOINT LeftToe
				{
					OFFSET 17.300003 0.000000 0.000002
					CHANNELS 3 Zrotation Yrotation Xrotation
					End Site
					{
						OFFSET 0.000000 0.000000 0.000000
					}
				}
			}
		}
	}
	JOINT RightUpLeg
	{
		OFFSET 0.103456 1.857828 -10.548503
		CHANNELS 3 Zrotation Yrotation Xrotation
		JOINT RightLeg
		{
			OFFSET 43.500042 -0.000019 0.000010
			CHANNELS 3 Zrotation Yrotation Xrotation
			JOINT RightFoot
			{
				OFFSET 42.372253 0.000000 0.000013
				CHANNELS 3 Zrotation Yrotation Xrotation
				JOINT RightToe
				{
					OFFSET 17.299976 -0.000010 0.000008
					CHANNELS 3 Zrotation Yrotation Xrotation
					End Site
					{
						OFFSET 0.000000 0.000000 0.000000
					}
				}
			}
		}
	}
	JOINT Spine
	{
		OFFSET 6.901965 -2.603735 -0.000001
		CHANNELS 3 Zrotation Yrotation Xrotation
		JOINT Spine1
		{
			OFFSET 12.588106 -0.000003 0.000000
			CHANNELS 3 Zrotation Yrotation Xrotation
			JOINT Spine2
			{
				OFFSET 12.343198 0.000019 -0.000002
				CHANNELS 3 Zrotation Yrotation Xrotation
				JOINT Neck
				{
					OFFSET 25.832905 -0.000013 0.000001
					CHANNELS 3 Zrotation Yrotation Xrotation
					JOINT Head
					{
						OFFSET 11.766598 0.000013 -0.000001
						CHANNELS 3 Zrotation Yrotation Xrotation
						End Site
						{
							OFFSET 0.000000 0.000000 0.000000
						}
					}
				}
				JOINT LeftShoulder
				{
					OFFSET 19.745911 -1.480387 6.000106
					CHANNELS 3 Zrotation Yrotation Xrotation
					JOINT LeftArm
					{
						OFFSET 11.284126 -0.000005 -0.000031
						CHANNELS 3 Zrotation Yrotation Xrotation
						JOINT LeftForeArm
						{
							OFFSET 33.000053 -0.000022 0.000026
							CHANNELS 3 Zrotation Yrotation Xrotation
							JOINT LeftHand
							{
								OFFSET 25.200005 0.000041 0.000016
								CHANNELS 3 Zrotation Yrotation Xrotation
								End Site
								{
									OFFSET 0.000000 0.000000 0.000000
								}
							}
						}
					}
				}
				JOINT RightShoulder
				{
					OFFSET 19.746105 -1.480383 -6.000075
					CHANNELS 3 Zrotation Yrotation Xrotation
					JOINT RightArm
					{
						OFFSET 11.284141 -0.000009 -0.000009
						CHANNELS 3 Zrotation Yrotation Xrotation
						JOINT RightForeArm
						{
							OFFSET 33.000092 0.000011 0.000021
							CHANNELS 3 Zrotation Yrotation Xrotation
							JOINT RightHand
							{
								OFFSET 25.199780 0.000133 0.000423
								CHANNELS 3 Zrotation Yrotation Xrotation
								End Site
								{
									OFFSET 0.000000 0.000000 0.000000
								}
							}
						}
					}
				}
			}
		}
	}
}
MOTION
Frames: 17
Frame Time: 0.033333
-22.846729 91.940529 -261.900696 90.784286 4.862016 89.441846 -175.136664 -1.693301 178.902981 -9.596121 -2.678880 -3.156344 82.475238 2.295304 0.207988 21.454551 0.003093 -0.000002 -177.883247 3.739298 176.420180 -14.013602 1.561438 1.358139 83.699672 -0.564126 2.006035 21.454558 -0.003110 -0.000020 6.041827 -0.042056 0.252180 2.098675 -0.077418 0.499068 1.780585 -0.074228 0.499712 19.904853 0.195685 0.888529 -19.147544 -1.568507 1.552390 -73.666664 -82.211094 -108.834843 -9.128512 -1.540929 -5.814255 -6.813980 -12.173409 0.817281 11.535607 5.773187 -7.776336 -177.662783 89.484897 4.022795 1.323319 -1.878593 11.056674 -13.858514 17.774565 -1.215405 12.800440 7.878028 1.903388 
-22.846439 91.939407 -261.902893 90.784293 4.864953 89.441846 -175.142456 -1.693292 178.884102 -9.611633 -2.675873 -3.144102 82.481924 2.286979 0.207990 21.454553 0.003090 0.000000 -177.886854 3.739307 176.420180 -14.024877 1.555486 1.358141 83.703955 -0.564129 2.009668 21.454560 -0.003108 -0.000016 6.041840 -0.042054 0.252180 2.095181 -0.077419 0.499070 1.777093 -0.074230 0.499704 19.934675 0.178283 0.881727 -19.145794 -1.553866 1.539769 -73.729085 -82.209079 -108.772566 -9.136995 -1.569503 -5.805211 -6.812394 -12.210900 0.817291 11.461927 5.840409 -7.772478 -178.600622 89.484897 3.084091 1.357556 -1.864078 11.064991 -13.830132 17.778334 -1.215418 12.769504 7.844558 1.961204 
-22.844971 91.936829 -261.907898 90.784293 4.871810 89.448595 -175.156458 -1.693292 178.836919 -9.648173 -2.667630 -3.111555 82.497074 2.265020 0.207993 21.454553 0.003094 0.000002 -177.894763 3.739314 176.420180 -14.051531 1.542734 1.358944 83.714398 -0.564130 2.018365 21.454558 -0.003103 -0.000017 6.041833 -0.042054 0.252187 2.087399 -0.077413 0.499068 1.769326 -0.074234 0.499708 20.000544 0.144920 0.868365 -19.133856 -1.528037 1.515984 -73.836510 -82.198581 -108.666049 -9.162715 -1.635070 -5.790853 -6.825697 -12.294819 0.817279 11.311401 6.035286 -7.723912 179.818035 89.484139 1.501426 1.439317 -1.824818 11.081393 -13.774591 17.764810 -1.215416 12.674931 7.796609 2.053059 
-22.843361 91.934563 -261.912292 90.784293 4.879861 89.457201 -175.167141 -1.693290 178.799435 -9.680046 -2.659965 -3.083744 82.509942 2.246239 0.207985 21.454553 0.003090 -0.000000 -177.898656 3.739307 176.409142 -14.072982 1.542727 1.369938 83.722826 -0.570553 2.024305 21.454558 -0.003109 -0.000017 6.041835 -0.042062 0.252176 2.079067 -0.082886 0.499076 1.760982 -0.079686 0.499711 20.058766 0.153837 0.863549 -19.108494 -1.532435 1.511980 -73.790318 -82.176670 -108.714523 -9.184517 -1.687874 -5.779352 -6.876525 -12.349200 0.817295 11.280430 6.117322 -7.652096 -178.483621 89.479979 3.200947 1.466977 -1.789975 11.094078 -13.739230 17.742291 -1.215419 12.622173 7.832118 2.056915 
-22.842871 91.932587 -261.915802 90.784306 4.890008 89.464140 -175.171963 -1.693286 178.789832 -9.704702 -2.655820 -3.073457 82.520344 2.238970 0.207983 21.454551 0.003091 -0.000001 -177.897154 3.739314 176.384171 -14.087731 1.548049 1.387903 83.728188 -0.582296 2.028295 21.454558 -0.003108 -0.000017 6.041818 -0.042057 0.252176 2.070629 -0.089455 0.499065 1.752532 -0.086265 0.499722 20.106335 0.175923 0.863499 -19.069506 -1.546124 1.515470 -73.753448 -82.147423 -108.754274 -9.205785 -1.739724 -5.765651 -6.943302 -12.355739 0.817289 11.296170 5.933186 -7.639263 -174.311359 89.472507 7.376710 1.443475 -1.763306 11.111720 -13.742471 17.741413 -1.215418 12.657284 7.852604 1.984500 
-22.844660 91.930679 -261.917999 90.780884 4.902778 89.465745 -175.169886 -1.697203 178.813164 -9.722348 -2.657341 -3.085646 82.529169 2.246418 0.204273 21.454553 0.003094 0.000002 -177.891252 3.733307 176.353107 -14.098597 1.552323 1.406707 83.730435 -0.594897 2.029237 21.454560 -0.003107 -0.000017 6.037481 -0.044922 0.252180 2.061907 -0.095101 0.499065 1.743829 -0.091945 0.499709 20.144931 0.190615 0.863976 -19.019777 -1.553110 1.518187 -73.781937 -82.114795 -108.728887 -9.224153 -1.787682 -5.749276 -7.017880 -12.344401 0.817291 11.331880 5.804389 -7.772493 -169.917143 89.462590 11.774571 1.390160 -1.754857 11.137288 -13.787100 17.752920 -1.215418 12.754741 7.883744 1.961123 
-22.848881 91.928719 -261.919189 90.773822 4.916222 89.457440 -175.163575 -1.706409 178.850102 -9.736393 -2.664010 -3.111389 82.538431 2.262790 0.198059 21.454553 0.003089 -0.000001 -177.884996 3.722197 176.319489 -14.108021 1.553801 1.421576 83.731576 -0.605122 2.028837 21.454557 -0.003116 -0.000019 6.032246 -0.047368 0.252193 2.051426 -0.099488 0.499066 1.733336 -0.096353 0.499709 20.182594 0.189197 0.861291 -18.968588 -1.544054 1.511012 -73.883399 -82.083683 -108.630395 -9.236367 -1.823846 -5.729310 -7.095895 -12.348409 0.817286 11.369511 5.730734 -7.856895 -167.501210 89.454277 14.192416 1.333145 -1.773940 11.171066 -13.851741 17.763579 -1.215414 12.817840 8.049710 1.993995 
-22.855221 91.926582 -261.919495 90.762996 4.928635 89.436396 -175.155639 -1.721198 178.882081 -9.749980 -2.674469 -3.141266 82.549714 2.281839 0.190946 21.454553 0.003088 -0.000001 -177.881772 3.706608 176.287114 -14.118204 1.554643 1.428542 83.732382 -0.610356 2.027925 21.454558 -0.003105 -0.000016 6.024949 -0.049643 0.252185 2.036828 -0.103359 0.499067 1.718745 -0.100223 0.499713 20.233903 0.168766 0.845764 -18.928836 -1.508396 1.480504 -74.003133 -82.071075 -108.511611 -9.229082 -1.829634 -5.703040 -7.175150 -12.387118 0.817286 11.405049 5.707087 -7.810448 -168.912750 89.448922 12.779486 1.300719 -1.824430 11.215142 -13.940071 17.805502 -1.215416 12.831769 8.185011 2.039417 
-22.863150 91.924393 -261.919403 90.749506 4.939746 89.403952 -175.147210 -1.740594 178.895372 -9.764616 -2.686937 -3.166319 82.563081 2.297752 0.184440 21.454555 0.003099 0.000001 -177.881854 3.686794 176.247076 -14.129063 1.554385 1.433648 83.732880 -0.614349 2.027272 21.454558 -0.003104 -0.000017 6.016804 -0.051916 0.252188 2.020533 -0.107684 0.499069 1.702446 -0.104534 0.499707 20.284752 0.125420 0.817085 -18.897136 -1.441520 1.424671 -74.178491 -82.069169 -108.336171 -9.216458 -1.807168 -5.640280 -7.233286 -12.415220 0.817272 11.422840 5.528936 -7.636360 -172.923041 89.436287 8.764993 1.283629 -1.903226 11.223741 -14.012133 17.835210 -1.215424 12.784363 8.296788 2.036694 
-22.872169 91.922142 -261.920013 90.734583 4.950775 89.363764 -175.138754 -1.762497 178.896178 -9.780951 -2.700428 -3.188298 82.577793 2.311610 0.178126 21.454551 0.003088 -0.000001 -177.884613 3.664397 176.204223 -14.141617 1.552549 1.435367 83.733154 -0.615429 2.026919 21.454557 -0.003097 -0.000016 6.009731 -0.054238 0.252181 2.006359 -0.112746 0.503409 1.688273 -0.109564 0.504081 20.330224 0.059884 0.784315 -18.883851 -1.346626 1.354550 -74.436289 -82.067537 -108.078175 -9.209879 -1.776625 -5.569239 -7.266355 -12.387861 0.817292 11.374492 5.284079 -7.692301 -176.887037 89.413494 4.796494 1.246202 -2.003300 11.225466 -14.037670 17.841573 -1.215413 12.736621 8.320612 1.985799 
-22.881750 91.919792 -261.923798 90.718463 4.959622 89.316102 -175.135913 -1.785785 178.890181 -9.802220 -2.714115 -3.210432 82.593810 2.325463 0.171205 21.454553 0.003090 0.000000 -177.895501 3.639898 176.160373 -14.159278 1.546920 1.434745 83.733270 -0.615074 2.026392 21.454558 -0.003107 -0.000019 6.007270 -0.057314 0.255933 1.997379 -0.118726 0.510882 1.679306 -0.115489 0.511582 20.353231 0.021285 0.764360 -18.882312 -1.274850 1.306576 -74.699942 -82.040387 -107.816715 -9.242871 -1.709190 -5.456412 -7.260080 -12.331169 0.817285 11.280687 4.977453 -7.950011 -178.863448 89.379767 2.817039 1.172503 -2.109455 11.223825 -14.001533 17.796720 -1.215413 12.666520 8.417025 1.981970 
-22.891680 91.917297 -261.931702 90.701374 4.965177 89.267198 -175.143536 -1.809911 178.884266 -9.833117 -2.727220 -3.233197 82.612258 2.339496 0.163398 21.454555 0.003091 0.000000 -177.914776 3.613807 176.120376 -14.181821 1.539322 1.430425 83.733290 -0.613425 2.025729 21.454560 -0.003106 -0.000016 6.006555 -0.060776 0.262926 1.993688 -0.125865 0.524786 1.675592 -0.122562 0.525543 20.342697 0.019029 0.748510 -18.874598 -1.230409 1.272522 -74.936089 -81.992903 -107.584646 -9.316270 -1.607336 -5.360048 -7.203676 -12.261562 0.812776 11.102389 4.846216 -8.142473 -176.476870 89.343594 5.204725 1.072852 -2.223221 11.218945 -13.900558 17.729402 -1.210464 12.587487 8.515897 2.112218 
-22.901760 91.914970 -261.941803 90.685077 4.972820 89.226607 -175.150407 -1.832599 178.868297 -9.861911 -2.734635 -3.245493 82.626806 2.346223 0.155495 21.454555 0.003107 0.000001 -177.931332 3.588208 176.092645 -14.203285 1.530687 1.423854 83.733058 -0.609171 2.024965 21.454560 -0.003111 -0.000017 6.007117 -0.064576 0.268759 1.995802 -0.133663 0.536398 1.677714 -0.130294 0.537205 20.311062 0.034175 0.737928 -18.865160 -1.206966 1.251693 -75.190902 -81.933891 -107.335166 -9.383524 -1.493734 -5.309484 -7.145597 -12.194192 0.808560 10.950611 4.751181 -8.369340 -173.496982 89.317291 8.187097 0.978181 -2.346441 11.266684 -13.795665 17.660036 -1.205400 12.558702 8.498965 2.301190 
-22.910530 91.912888 -261.953888 90.671451 4.979254 89.200344 -175.161827 -1.852707 178.868707 -9.890096 -2.742575 -3.259021 82.638336 2.354108 0.148866 21.454551 0.003093 0.000001 -177.947069 3.566807 176.084080 -14.223323 1.522634 1.414167 83.732382 -0.602762 2.024147 21.454560 -0.003106 -0.000018 6.008514 -0.069077 0.272192 2.001031 -0.142741 0.543182 1.682947 -0.139320 0.544037 20.268025 0.056360 0.729903 -18.834052 -1.196765 1.238237 -75.444419 -81.876674 -107.086684 -9.428041 -1.387555 -5.266951 -7.109462 -12.168583 0.806715 10.850080 4.458935 -8.375625 -170.538431 89.295844 11.148475 0.901764 -2.464074 11.344113 -13.696169 17.601102 -1.200984 12.618382 8.543919 2.414875 
-22.917549 91.911118 -261.968811 90.661609 4.981049 89.186083 -175.181266 -1.867293 178.878433 -9.918507 -2.747291 -3.271343 82.646908 2.361167 0.142482 21.454551 0.003088 -0.000000 -177.967286 3.551107 176.090241 -14.244736 1.515065 1.401101 83.731391 -0.593935 2.023317 21.454560 -0.003107 -0.000018 6.010274 -0.075063 0.273689 2.007346 -0.154753 0.546103 1.689261 -0.151307 0.547006 20.239534 0.098779 0.720634 -18.814031 -1.208238 1.231491 -75.574711 -81.853889 -106.958413 -9.406455 -1.297587 -5.265709 -7.117703 -12.248105 0.811787 10.811471 4.334647 -8.287325 -168.290930 89.269657 13.398149 0.857440 -2.552677 11.428597 -13.624258 17.591861 -1.198913 12.636641 8.517791 2.282824 
-22.924980 91.909607 -261.986786 90.651937 4.979897 89.171719 -175.207125 -1.882510 178.882408 -9.948233 -2.749019 -3.280232 82.654250 2.365967 0.136550 21.454551 0.003098 -0.000000 -177.993828 3.534201 176.098997 -14.267000 1.506218 1.389320 83.730162 -0.585775 2.022513 21.454557 -0.003110 -0.000018 6.013742 -0.081823 0.276191 2.014246 -0.168331 0.550067 1.696159 -0.164865 0.551073 20.237075 0.148025 0.705741 -18.820404 -1.230755 1.223170 -75.657712 -81.838698 -106.876683 -9.363975 -1.235400 -5.308131 -7.146813 -12.338370 0.817553 10.817421 4.186354 -8.219846 -167.214424 89.241530 14.475261 0.864307 -2.600391 11.512603 -13.590571 17.572731 -1.197617 12.615732 8.470342 2.159569 
-22.931200 91.908257 -262.008087 90.642559 4.974542 89.154616 -175.239090 -1.895817 178.879253 -9.979369 -2.749716 -3.286678 82.660602 2.368154 0.131018 21.454553 0.003096 0.000002 -178.027747 3.518897 176.100855 -14.291222 1.498928 1.378271 83.728803 -0.578053 2.021781 21.454555 -0.003105 -0.000017 6.017310 -0.088616 0.279170 2.021319 -0.181997 0.556084 1.703230 -0.178491 0.557183 20.265750 0.188987 0.691025 -18.859354 -1.249538 1.214237 -75.710810 -81.834347 -106.823906 -9.300758 -1.209994 -5.400025 -7.194892 -12.403342 0.821737 10.870842 4.034473 -8.121308 -166.873051 89.215658 14.816659 0.900569 -2.622487 11.558966 -13.564434 17.574259 -1.197097 12.586638 8.350290 2.158985 
